<?xml version="1.0" standalone="no"?>
<!DOCTYPE svg PUBLIC "-//W3C//DTD SVG 20010904//EN"
 "http://www.w3.org/TR/2001/REC-SVG-20010904/DTD/svg10.dtd">
<svg version="1.0" xmlns="http://www.w3.org/2000/svg"
 width="318.000000pt" height="285.000000pt" viewBox="0 0 318.000000 285.000000"
 preserveAspectRatio="xMidYMid meet">

<g transform="translate(0.000000,285.000000) scale(0.100000,-0.100000)"
fill="#000000" stroke="none">
<path d="M1545 2610 c-290 -35 -547 -195 -710 -440 -36 -53 -72 -114 -81 -135
-9 -22 -34 -76 -55 -120 -75 -156 -106 -276 -116 -456 -14 -251 74 -515 238
-711 182 -217 405 -345 671 -384 351 -52 691 68 936 331 135 144 222 314 273
535 28 122 10 381 -37 514 -8 23 -19 74 -25 114 -23 166 -97 347 -203 497 -68
96 -126 151 -169 161 -27 6 -35 2 -57 -24 l-25 -30 -100 49 c-179 86 -364 120
-540 99z m28 -127 c-7 -2 -19 -2 -25 0 -7 3 -2 5 12 5 14 0 19 -2 13 -5z m160
0 c-7 -2 -19 -2 -25 0 -7 3 -2 5 12 5 14 0 19 -2 13 -5z m620 -148 c27 -52 28
-127 3 -183 -10 -23 -22 -42 -26 -42 -13 0 -31 53 -37 111 -3 33 -9 62 -13 64
-13 8 -20 -83 -10 -135 12 -61 21 -80 72 -145 22 -27 59 -90 83 -140 155 -316
116 -672 -103 -945 -74 -93 -193 -187 -307 -241 -324 -156 -710 -97 -977 150
-320 296 -373 780 -125 1146 86 126 207 228 350 295 305 142 676 98 929 -111
26 -22 49 -39 52 -39 3 0 -8 25 -25 56 -17 34 -29 71 -29 95 0 42 24 120 48
157 l15 23 39 -38 c22 -21 49 -56 61 -78z m-836 -1811 c-3 -3 -12 -4 -19 -1
-8 3 -5 6 6 6 11 1 17 -2 13 -5z"/>
<path d="M1470 2294 c-252 -54 -458 -209 -574 -434 -70 -134 -91 -227 -90
-395 1 -123 4 -151 28 -230 63 -208 204 -384 394 -493 121 -68 342 -120 460
-107 289 32 495 153 654 386 123 180 164 437 105 660 -25 94 -73 206 -106 243
-28 31 -88 56 -138 56 -53 0 -48 -11 12 -28 59 -17 110 -51 97 -64 -13 -13
-102 -23 -134 -15 -41 11 -115 66 -141 106 l-26 38 26 12 c45 21 134 24 183 7
24 -8 46 -14 47 -12 8 7 -138 133 -190 164 -176 106 -415 148 -607 106z m310
-348 c68 -14 157 -53 200 -86 24 -18 25 -25 28 -136 2 -64 0 -120 -5 -124 -4
-4 -20 -10 -36 -14 -21 -5 -29 -2 -34 11 -32 93 -73 174 -105 209 -56 61 -96
77 -178 72 -116 -6 -186 -73 -233 -223 -19 -59 -22 -92 -21 -215 0 -123 4
-155 23 -210 30 -88 74 -150 134 -191 48 -33 54 -34 141 -34 82 0 96 3 145 30
51 28 96 77 133 144 17 31 18 32 48 16 l30 -16 -30 -60 c-40 -79 -97 -134
-178 -172 -55 -26 -82 -32 -152 -36 -210 -9 -381 87 -464 261 -42 90 -56 154
-56 265 0 348 277 579 610 509z"/>
</g>
</svg>
